<svg xmlns="http://www.w3.org/2000/svg" viewBox="0 0 800 240" width="800" height="240" font-family="Inter,system-ui,sans-serif">
  <defs>
    <linearGradient id="bg" x1="0" y1="0" x2="1" y2="1">
      <stop offset="0" stop-color="#07080c"/>
      <stop offset="1" stop-color="#0c0f17"/>
    </linearGradient>
  </defs>
  <rect width="800" height="240" fill="url(#bg)"/>
  <text x="40" y="40" fill="#f1f3f7" font-size="20" font-weight="700">Browse by category</text>
  <text x="40" y="62" fill="#8d99af" font-size="12">Top-9 chips by record count &middot; click to filter</text>

  <g transform="translate(40,90)" font-size="13" font-weight="600">
    <g>
      <rect width="120" height="44" rx="22" fill="#fff"/>
      <text x="20" y="28" fill="#07080c">All &middot; 364</text>
    </g>
    <g transform="translate(132,0)">
      <rect width="180" height="44" rx="22" fill="rgba(255,255,255,.06)" stroke="#232a37"/>
      <text x="20" y="28" fill="#f1f3f7">Landing Page &middot; 86</text>
    </g>
    <g transform="translate(324,0)">
      <rect width="140" height="44" rx="22" fill="rgba(255,255,255,.06)" stroke="#232a37"/>
      <text x="20" y="28" fill="#f1f3f7">Hero &middot; 64</text>
    </g>
    <g transform="translate(476,0)">
      <rect width="140" height="44" rx="22" fill="rgba(255,255,255,.06)" stroke="#232a37"/>
      <text x="20" y="28" fill="#f1f3f7">SaaS &middot; 42</text>
    </g>
    <g transform="translate(0,56)">
      <rect width="160" height="44" rx="22" fill="rgba(255,255,255,.06)" stroke="#232a37"/>
      <text x="20" y="28" fill="#f1f3f7">Agency &middot; 38</text>
    </g>
    <g transform="translate(172,56)">
      <rect width="160" height="44" rx="22" fill="rgba(255,255,255,.06)" stroke="#232a37"/>
      <text x="20" y="28" fill="#f1f3f7">Dashboard &middot; 32</text>
    </g>
    <g transform="translate(344,56)">
      <rect width="180" height="44" rx="22" fill="rgba(255,255,255,.06)" stroke="#232a37"/>
      <text x="20" y="28" fill="#f1f3f7">Portfolio &middot; 28</text>
    </g>
    <g transform="translate(536,56)">
      <rect width="140" height="44" rx="22" fill="rgba(255,255,255,.06)" stroke="#232a37"/>
      <text x="20" y="28" fill="#f1f3f7">Web3 &middot; 24</text>
    </g>
    <g transform="translate(0,112)">
      <rect width="180" height="44" rx="22" fill="rgba(255,255,255,.06)" stroke="#232a37"/>
      <text x="20" y="28" fill="#f1f3f7">AI / Dashboard &middot; 22</text>
    </g>
    <g transform="translate(192,112)">
      <rect width="140" height="44" rx="22" fill="rgba(255,255,255,.06)" stroke="#232a37"/>
      <text x="20" y="28" fill="#f1f3f7">Travel &middot; 14</text>
    </g>
    <g transform="translate(344,112)">
      <rect width="170" height="44" rx="22" fill="rgba(255,255,255,.06)" stroke="#232a37"/>
      <text x="20" y="28" fill="#f1f3f7">Healthcare &middot; 14</text>
    </g>
  </g>
</svg>
